<?xml version="1.0" encoding="UTF-8"?>
<!DOCTYPE svg PUBLIC "-//W3C//DTD SVG 1.1//EN" "http://www.w3.org/Graphics/SVG/1.1/DTD/svg11.dtd">
<!-- Creator: CorelDRAW -->
<svg xmlns="http://www.w3.org/2000/svg" xml:space="preserve" width="2.66666in" height="2.66666in" version="1.1" style="shape-rendering:geometricPrecision; text-rendering:geometricPrecision; image-rendering:optimizeQuality; fill-rule:evenodd; clip-rule:evenodd"
viewBox="0 0 2667 2667"
 xmlns:xlink="http://www.w3.org/1999/xlink">
 <defs>
  <style type="text/css">
   <![CDATA[
    .fil1 {fill:#1A1A1A}
    .fil0 {fill:#99CC99}
    .fil2 {fill:yellow}
   ]]>
  </style>
 </defs>
 <rect class="fil0" width="2667" height="2667" rx="333" ry="333"/>
 <g id="Layer_x0020_1">
  <metadata id="CorelCorpID_0Corel-Layer"/>
  <path class="fil1" d="M1041 873l-103 -180c-7,-11 -3,-24 8,-31 11,-6 25,-2 31,9l103 179c70,-37 148,-59 231,-62l0 -285c0,-30 45,-30 45,0l0 285c83,3 161,25 230,62l104 -179c14,-26 54,-3 39,22l-103 180c67,43 125,100 168,168l247 -143c26,-14 48,25 23,40l-247 142c36,70 58,148 62,231l206 0c30,0 30,45 0,45l-206 0c-4,83 -26,161 -62,230l247 143c26,15 2,53 -23,39l-247 -142c-43,67 -101,125 -168,168l103 179c15,26 -25,49 -39,23l-104 -179c-69,36 -147,58 -230,62l0 285c0,29 -45,29 -45,0l0 -285c-83,-4 -161,-26 -231,-62l-103 179c-15,26 -54,3 -39,-23l103 -179c-68,-43 -125,-101 -168,-168l-248 142c-24,14 -48,-24 -22,-39l247 -143c-37,-69 -59,-147 -62,-230l-207 0c-29,0 -29,-45 0,-45l207 0c3,-83 25,-161 62,-231l-247 -142c-26,-15 -3,-54 22,-40l248 143c43,-68 100,-125 168,-168zm564 452c-16,0 -28,-19 -19,-34 22,-38 12,-66 -18,-79 -27,-11 -12,-53 16,-42 52,19 79,78 41,143 -4,8 -12,12 -20,12zm-524 -132c-36,0 -63,-21 -85,-58 -14,-25 25,-48 40,-23 21,38 51,44 77,24 23,-18 51,16 29,35 -3,3 -28,22 -61,22zm115 546c-29,0 -29,-46 0,-46 43,0 65,-23 59,-55 -5,-29 40,-36 45,-7 10,55 -28,108 -104,108zm132 -327c-19,0 -30,-24 -16,-39l47 -46c20,-21 52,11 32,32l-47 47c-4,4 -10,6 -16,6zm358 24c-19,0 -30,-24 -16,-38l47 -47c21,-21 53,11 32,32l-46 47c-5,4 -11,6 -17,6zm-526 -428c-19,0 -30,-24 -16,-39l47 -46c20,-21 52,11 32,32l-47 46c-4,5 -10,7 -16,7zm-245 311c-19,0 -30,-25 -16,-39l46 -47c21,-20 53,12 33,32l-47 47c-4,4 -10,7 -16,7zm640 -231c-16,0 -28,-19 -19,-34 21,-37 12,-67 -18,-79 -28,-10 -12,-53 16,-42 52,19 79,78 41,143 -4,8 -12,12 -20,12zm-197 158c-69,0 -124,-56 -124,-124 0,-69 55,-125 124,-125 68,0 124,56 124,125 0,68 -56,124 -124,124zm0 -203c-44,0 -79,35 -79,79 0,43 35,78 79,78 43,0 78,-35 78,-78 0,-44 -35,-79 -78,-79zm166 626c-68,0 -124,-55 -124,-124 0,-68 56,-124 124,-124 69,0 124,56 124,124 0,69 -55,124 -124,124zm0 -202c-43,0 -78,35 -78,78 0,44 35,79 78,79 44,0 79,-35 79,-79 0,-43 -35,-78 -79,-78zm-438 119c-68,0 -124,-56 -124,-124 0,-69 56,-125 124,-125 69,0 124,56 124,125 0,68 -55,124 -124,124zm0 -203c-43,0 -78,35 -78,79 0,43 35,78 78,78 44,0 79,-35 79,-78 0,-44 -35,-79 -79,-79zm247 -550c-276,0 -500,224 -500,500 0,278 225,499 501,501 276,-1 500,-225 500,-501 0,-276 -225,-500 -501,-500z"/>
  <path class="fil2" d="M1358 1043c-44,0 -79,35 -79,79 0,43 35,78 79,78 43,0 78,-35 78,-78 0,-44 -35,-79 -78,-79z"/>
  <path class="fil2" d="M1165 1462c0,-44 -35,-79 -79,-79 -43,0 -78,35 -78,79 0,43 35,78 78,78 44,0 79,-35 79,-78z"/>
  <path class="fil2" d="M1524 1467c-43,0 -78,35 -78,78 0,44 35,79 78,79 44,0 79,-35 79,-79 0,-43 -35,-78 -79,-78z"/>
 </g>
</svg>
